<svg width="80" height="80" viewBox="0 0 80 80" fill="none" xmlns="http://www.w3.org/2000/svg">
<path d="M51.9141 71.209V43.5718C51.9267 43.3126 52.0385 43.0683 52.2263 42.8893C52.4141 42.7104 52.6636 42.6106 52.923 42.6106C53.1825 42.6106 53.4319 42.7104 53.6198 42.8893C53.8076 43.0683 53.9194 43.3126 53.932 43.5718V70.2001H57.7089C57.8455 70.1935 57.982 70.2147 58.1102 70.2624C58.2384 70.3101 58.3555 70.3833 58.4546 70.4777C58.5536 70.572 58.6324 70.6855 58.6863 70.8112C58.7402 70.9369 58.7679 71.0723 58.7679 71.209C58.7679 71.3458 58.7402 71.4811 58.6863 71.6069C58.6324 71.7326 58.5536 71.846 58.4546 71.9404C58.3555 72.0347 58.2384 72.108 58.1102 72.1557C57.982 72.2034 57.8455 72.2246 57.7089 72.2179H52.9242C52.6563 72.2179 52.3994 72.1115 52.21 71.9221C52.0205 71.7327 51.9141 71.4757 51.9141 71.2078" fill="#065072"/>
<path d="M57.725 71.2413C57.725 70.6973 57.8863 70.1656 58.1885 69.7134C58.4907 69.2611 58.9202 68.9086 59.4228 68.7004C59.9253 68.4923 60.4783 68.4378 61.0118 68.5439C61.5453 68.6501 62.0353 68.912 62.4199 69.2966C62.8045 69.6812 63.0665 70.1713 63.1726 70.7048C63.2787 71.2382 63.2242 71.7912 63.0161 72.2937C62.8079 72.7963 62.4554 73.2258 62.0032 73.528C61.5509 73.8302 61.0192 73.9915 60.4752 73.9915C59.7461 73.9905 59.0471 73.7005 58.5316 73.1849C58.016 72.6694 57.726 71.9704 57.725 71.2413ZM61.4794 71.2413C61.4794 71.0427 61.4205 70.8485 61.3102 70.6834C61.1998 70.5183 61.043 70.3896 60.8595 70.3136C60.676 70.2376 60.4741 70.2177 60.2793 70.2564C60.0845 70.2952 59.9056 70.3908 59.7652 70.5312C59.6247 70.6717 59.5291 70.8506 59.4904 71.0454C59.4516 71.2402 59.4715 71.4421 59.5475 71.6256C59.6235 71.8091 59.7522 71.9659 59.9173 72.0762C60.0825 72.1866 60.2766 72.2455 60.4752 72.2455C60.7415 72.2451 60.9967 72.1392 61.1849 71.951C61.3732 71.7627 61.4791 71.5075 61.4794 71.2413Z" fill="#EBAB21"/>
<path d="M27.5908 70.4614V43.0176C27.6034 42.7584 27.7151 42.5141 27.903 42.3351C28.0908 42.1562 28.3403 42.0564 28.5997 42.0564C28.8591 42.0564 29.1086 42.1562 29.2964 42.3351C29.4843 42.5141 29.5961 42.7584 29.6086 43.0176V70.4614C29.6153 70.598 29.5941 70.7345 29.5464 70.8627C29.4986 70.9909 29.4254 71.108 29.3311 71.2071C29.2367 71.3061 29.1233 71.3849 28.9975 71.4388C28.8718 71.4927 28.7365 71.5204 28.5997 71.5204C28.4629 71.5204 28.3276 71.4927 28.2019 71.4388C28.0762 71.3849 27.9627 71.3061 27.8684 71.2071C27.774 71.108 27.7008 70.9909 27.6531 70.8627C27.6053 70.7345 27.5842 70.598 27.5908 70.4614Z" fill="#065072"/>
<path d="M25.7546 72.5233C25.7546 71.9793 25.9159 71.4476 26.2181 70.9953C26.5203 70.5431 26.9498 70.1906 27.4523 69.9824C27.9549 69.7743 28.5079 69.7198 29.0413 69.8259C29.5748 69.932 30.0649 70.194 30.4495 70.5786C30.8341 70.9632 31.096 71.4532 31.2022 71.9867C31.3083 72.5202 31.2538 73.0732 31.0457 73.5757C30.8375 74.0783 30.485 74.5078 30.0327 74.81C29.5805 75.1122 29.0487 75.2735 28.5048 75.2735C27.7757 75.2725 27.0767 74.9825 26.5612 74.4669C26.0456 73.9514 25.7556 73.2524 25.7546 72.5233ZM29.509 72.5233C29.509 72.3247 29.4501 72.1305 29.3397 71.9654C29.2294 71.8002 29.0726 71.6715 28.8891 71.5955C28.7056 71.5195 28.5037 71.4996 28.3089 71.5384C28.1141 71.5771 27.9352 71.6728 27.7947 71.8132C27.6543 71.9536 27.5587 72.1326 27.5199 72.3274C27.4812 72.5222 27.5011 72.7241 27.5771 72.9076C27.6531 73.091 27.7818 73.2479 27.9469 73.3582C28.1121 73.4685 28.3062 73.5274 28.5048 73.5274C28.771 73.5271 29.0263 73.4212 29.2145 73.233C29.4028 73.0447 29.5087 72.7895 29.509 72.5233Z" fill="#EBAB21"/>
<path d="M80 32.1906C80.0049 34.7608 79.2495 37.275 77.829 39.4169V39.424C76.8463 40.9091 75.5711 42.1782 74.0813 43.1537C72.5914 44.1293 70.9183 44.7907 69.1642 45.0977C68.8421 45.1262 68.5181 45.1404 68.192 45.1404H11.5798C9.82143 45.1441 8.08809 44.724 6.52664 43.9154C4.96519 43.1069 3.62166 41.9339 2.60988 40.4958L2.56953 40.4365C1.20257 38.4564 0.34938 36.1674 0.086729 33.7757C-0.175922 31.3839 0.160209 28.9644 1.06488 26.7348C1.96954 24.5052 3.41436 22.5355 5.2693 21.003C7.12425 19.4705 9.33113 18.4232 11.6914 17.9554C11.7509 16.2967 12.2103 14.6769 13.0305 13.234C13.8507 11.7911 15.0074 10.5677 16.4021 9.66795C17.7968 8.76823 19.3883 8.21884 21.0411 8.06653C22.6938 7.91423 24.3589 8.16352 25.8946 8.79318C26.0607 8.86084 26.2245 8.93443 26.386 9.0104C26.4216 8.95461 26.4572 8.9012 26.494 8.8466C28.8621 5.31187 32.2983 2.62675 36.3006 1.1833C40.303 -0.260161 44.662 -0.38636 48.7411 0.823127C52.8203 2.03261 56.406 4.51444 58.9747 7.90624C61.5434 11.298 62.9606 15.4222 63.0193 19.6765C64.9797 19.0709 67.0549 18.9339 69.078 19.2765C71.101 19.6191 73.0154 20.4317 74.6672 21.649C76.3189 22.8663 77.6619 24.4543 78.5881 26.2852C79.5144 28.1161 79.9979 30.1388 80 32.1906Z" fill="#063A4F"/>
<path d="M79.4075 31.8486C79.4133 34.3813 78.6699 36.8591 77.271 38.9704V38.9763C76.3011 40.4395 75.043 41.6895 73.5735 42.6499C72.1041 43.6104 70.4543 44.261 68.7249 44.5622C68.4083 44.5899 68.0894 44.6037 67.7682 44.6037H12.0034C10.2713 44.6077 8.56377 44.1941 7.02548 43.398C5.48718 42.6019 4.16345 41.4467 3.16644 40.0304L3.12608 39.9722C1.7798 38.0214 0.939597 35.7666 0.681054 33.4105C0.422511 31.0544 0.753743 28.671 1.64495 26.4747C2.53616 24.2784 3.95938 22.3381 5.78658 20.8284C7.61379 19.3187 9.78764 18.2869 12.1126 17.8258C12.1713 16.1917 12.6239 14.5959 13.432 13.1744C14.2401 11.7528 15.3797 10.5475 16.7537 9.66111C18.1278 8.7747 19.6957 8.2334 21.324 8.08329C22.9523 7.93318 24.5927 8.17869 26.1057 8.79894C26.2695 8.86659 26.4309 8.93781 26.59 9.01378C26.6244 8.95918 26.66 8.90576 26.6956 8.85235C29.0282 5.36961 32.4131 2.72384 36.356 1.30143C40.299 -0.120972 44.5935 -0.245492 48.6122 0.946056C52.631 2.1376 56.1635 4.5828 58.6939 7.92454C61.2243 11.2663 62.6201 15.3295 62.6773 19.5208C64.6087 18.9237 66.6533 18.7882 68.6466 19.1255C70.6399 19.4627 72.5262 20.2631 74.1537 21.4624C75.7812 22.6616 77.1044 24.2261 78.0169 26.0301C78.9295 27.834 79.4058 29.827 79.4075 31.8486Z" fill="#065072"/>
<path d="M73.1419 22.3248C72.1017 21.647 70.9669 21.127 69.7744 20.7817C70.9725 21.1119 72.1096 21.6329 73.1419 22.3248Z" fill="#063A4F"/>
<path d="M39.8007 29.0164C40.077 28.2 40.2532 27.353 40.3253 26.4941L38.5852 25.6478C38.5852 25.3653 38.5781 25.0816 38.552 24.7956C38.5449 24.6971 38.5318 24.6009 38.5212 24.5024L40.1568 23.4685C39.9906 22.6236 39.7219 21.8021 39.3568 21.0222L37.4232 21.1623C37.2355 20.8282 37.0257 20.507 36.7953 20.2008L37.695 18.4892C37.1256 17.8427 36.4813 17.2661 35.7757 16.7717L34.1733 17.859C33.8435 17.6643 33.5018 17.4906 33.1501 17.3391L33.0742 15.4079C32.2579 15.1307 31.4109 14.9537 30.5519 14.8809L29.7091 16.6269C29.4278 16.6269 29.1453 16.6352 28.8581 16.6601C28.7584 16.6684 28.6622 16.6803 28.5649 16.6922L27.5322 15.0542C26.6869 15.2224 25.8648 15.4914 25.0835 15.8554L25.2236 17.7889C24.8902 17.9771 24.5694 18.1868 24.2633 18.4168L22.5505 17.5159C21.9031 18.0845 21.3268 18.7294 20.8342 19.4364L21.9215 21.0388C21.7257 21.3678 21.5517 21.7092 21.4004 22.0608L19.468 22.1368C19.1914 22.9531 19.0153 23.8001 18.9434 24.6591L20.6834 25.5018C20.6834 25.7843 20.6906 26.068 20.7155 26.3529C20.7238 26.4526 20.7369 26.5487 20.7499 26.6472L19.1119 27.6799C19.2798 28.5249 19.5488 29.3467 19.9131 30.1274L21.8443 29.9874C22.0333 30.3205 22.2434 30.6413 22.4734 30.9476L21.5737 32.658C22.144 33.3063 22.7909 33.883 23.5001 34.3756L25.1025 33.2895C25.4316 33.4857 25.7734 33.6598 26.1257 33.8106L26.2017 35.7418C27.0176 36.0185 27.8642 36.195 28.7228 36.2676L29.5679 34.5275C29.848 34.5275 30.1329 34.5192 30.4189 34.4943C30.5163 34.4871 30.6136 34.4729 30.7097 34.461L31.7436 36.1002C32.5859 35.932 33.4048 35.663 34.1828 35.299L34.0463 33.3631C34.3795 33.174 34.7006 32.9643 35.0077 32.7352L36.7182 33.6349C37.365 33.0657 37.9413 32.4209 38.4345 31.7144L37.3496 30.1132C37.5431 29.7824 37.7167 29.4403 37.8695 29.0888L39.8007 29.0164ZM29.6355 31.8853C28.3877 31.8855 27.1679 31.5157 26.1303 30.8227C25.0927 30.1296 24.2839 29.1444 23.8062 27.9917C23.3285 26.8389 23.2034 25.5704 23.4467 24.3466C23.69 23.1227 24.2908 21.9985 25.173 21.1161C26.0552 20.2337 27.1793 19.6327 28.4031 19.3892C29.6269 19.1457 30.8955 19.2705 32.0483 19.748C33.2012 20.2254 34.1865 21.034 34.8798 22.0715C35.573 23.109 35.9431 24.3288 35.9431 25.5766C35.9412 27.249 35.2761 28.8524 34.0936 30.035C32.9112 31.2177 31.3079 31.8831 29.6355 31.8853Z" fill="#00B7C1"/>
<path d="M23.7791 25.576C23.7802 26.7343 24.1248 27.8662 24.7691 28.8287C25.4135 29.7912 26.3287 30.5411 27.3992 30.9836C28.4697 31.426 29.6472 31.5412 30.7831 31.3145C31.919 31.0878 32.9622 30.5294 33.7808 29.71C34.5994 28.8905 35.1567 27.8468 35.3823 26.7107C35.6078 25.5746 35.4915 24.3971 35.0479 23.3271C34.6044 22.2571 33.8536 21.3426 32.8905 20.6992C31.9273 20.0558 30.795 19.7124 29.6367 19.7124C28.0835 19.714 26.5943 20.3318 25.496 21.4302C24.3978 22.5287 23.7803 24.018 23.7791 25.5713V25.576ZM34.0451 25.1867C34.1214 26.0588 33.9373 26.934 33.5162 27.7015C33.0951 28.469 32.4558 29.0944 31.6792 29.4986C30.9027 29.9027 30.0237 30.0675 29.1534 29.9721C28.2832 29.8767 27.4608 29.5254 26.7902 28.9626C26.1197 28.3998 25.631 27.6508 25.3862 26.8102C25.1413 25.9697 25.1513 25.0755 25.4147 24.2406C25.6781 23.4057 26.1831 22.6677 26.866 22.1198C27.5488 21.572 28.3788 21.239 29.251 21.1629C29.83 21.1122 30.4133 21.1761 30.9676 21.3509C31.5219 21.5257 32.0364 21.808 32.4816 22.1816C32.9268 22.5553 33.294 23.013 33.5623 23.5286C33.8306 24.0442 33.9946 24.6077 34.0451 25.1867Z" fill="#00B7C1"/>
<path d="M44.875 32.4321C44.8574 33.2695 45.0884 34.0934 45.539 34.7995C45.9896 35.5057 46.6395 36.0623 47.4065 36.3991C48.1734 36.7358 49.023 36.8376 49.8478 36.6915C50.6726 36.5454 51.4356 36.158 52.0402 35.5783C52.6448 34.9986 53.064 34.2526 53.2446 33.4346C53.4252 32.6167 53.3593 31.7636 53.055 30.9831C52.7508 30.2027 52.222 29.53 51.5354 29.0501C50.8488 28.5703 50.0354 28.3047 49.1979 28.2872C48.0755 28.2652 46.9902 28.6892 46.1798 29.4662C45.3695 30.2431 44.9003 31.3097 44.875 32.4321ZM51.3404 31.1359C51.5191 31.4301 51.6372 31.757 51.6878 32.0975C51.7384 32.4379 51.7204 32.785 51.635 33.1185C51.5496 33.4519 51.3984 33.7649 51.1904 34.0391C50.9824 34.3133 50.7217 34.5432 50.4236 34.7152C50.1255 34.8873 49.796 34.9981 49.4545 35.0411C49.113 35.084 48.7663 35.0584 48.4349 34.9655C48.1035 34.8727 47.7939 34.7146 47.5244 34.5005C47.2549 34.2864 47.0309 34.0206 46.8656 33.7187C46.5444 33.1362 46.4577 32.453 46.6231 31.8086C46.7886 31.1643 47.1937 30.6074 47.7558 30.2516C48.0482 30.071 48.3736 29.9504 48.7131 29.897C49.0527 29.8435 49.3994 29.8583 49.7332 29.9404C50.0669 30.0225 50.3809 30.1703 50.6569 30.3752C50.9329 30.58 51.1652 30.8378 51.3404 31.1335" fill="#EBAB21"/>
<path d="M56.1407 33.2162C56.1907 32.7051 56.1855 32.1902 56.1252 31.6803L54.9383 31.3954C54.875 31.0797 54.7873 30.7693 54.6759 30.4672L55.5496 29.6066C55.4432 29.3725 55.3243 29.1443 55.1935 28.9229C55.063 28.7023 54.9204 28.4891 54.7662 28.2843L53.5922 28.6404C53.3813 28.3964 53.1506 28.1701 52.9026 27.9639L53.2278 26.7769C52.8103 26.4783 52.3618 26.2256 51.8901 26.0232L51.0462 26.9158C50.7425 26.8118 50.4309 26.7325 50.1144 26.6784L49.8035 25.4914C49.2935 25.4426 48.7797 25.4489 48.2711 25.5104L47.9838 26.6974C47.6681 26.7588 47.358 26.8466 47.0568 26.9597L46.1951 26.0873C45.9611 26.1932 45.7333 26.3121 45.5126 26.4434C45.2921 26.5737 45.0789 26.7159 44.874 26.8695L45.223 28.0458C44.9802 28.2572 44.7544 28.4874 44.5476 28.7342L43.3665 28.4102C43.0667 28.8258 42.8128 29.2727 42.6093 29.7431L43.4995 30.5882C43.3962 30.8922 43.3169 31.2037 43.2621 31.52L42.0751 31.8322C42.0249 32.3425 42.0305 32.8567 42.0917 33.3657L43.2787 33.6494C43.3412 33.9659 43.4281 34.277 43.5387 34.58L42.6674 35.4406C42.7726 35.6741 42.8915 35.9012 43.0235 36.1207C43.1539 36.3418 43.2962 36.5558 43.4496 36.7616L44.6259 36.4115C44.8374 36.6539 45.0676 36.8793 45.3143 37.0857L44.9915 38.2727C45.4074 38.5714 45.8548 38.8238 46.3256 39.0252L47.1708 38.1338C47.4746 38.2388 47.7866 38.3182 48.1037 38.3712L48.4147 39.5581C48.9254 39.6072 49.4399 39.6016 49.9495 39.5415L50.2331 38.3546C50.5489 38.2932 50.859 38.2055 51.1602 38.0922L52.0255 38.9647C52.2587 38.859 52.4858 38.7401 52.7056 38.6086C52.9262 38.478 53.1393 38.3354 53.3442 38.1813L52.9881 37.0062C53.2317 36.7956 53.4576 36.5654 53.6635 36.3177L54.8504 36.6418C55.1495 36.2254 55.4015 35.7772 55.6018 35.3052L54.7116 34.4601C54.8154 34.1568 54.8948 33.8456 54.9489 33.5295L56.1407 33.2162ZM49.0189 37.0881C48.116 37.0691 47.239 36.7828 46.4988 36.2654C45.7586 35.7481 45.1885 35.0228 44.8604 34.1814C44.5324 33.34 44.4613 32.4202 44.6559 31.5384C44.8506 30.6565 45.3025 29.8522 45.9543 29.2271C46.6061 28.6021 47.4286 28.1843 48.3178 28.0267C49.207 27.869 50.123 27.9786 50.9499 28.3416C51.7769 28.7045 52.4777 29.3045 52.9636 30.0657C53.4496 30.8269 53.6989 31.7151 53.6801 32.618C53.653 33.8283 53.1471 34.9784 52.2733 35.8164C51.3996 36.6543 50.2292 37.1116 49.0189 37.0881Z" fill="#EBAB21"/>
<path d="M43.05 18.1342C43.0367 18.7041 43.1928 19.2651 43.4986 19.7463C43.8043 20.2274 44.2459 20.607 44.7675 20.8371C45.2891 21.0671 45.8672 21.1372 46.4286 21.0385C46.9901 20.9398 47.5096 20.6768 47.9215 20.2827C48.3334 19.8886 48.6191 19.3812 48.7425 18.8246C48.8658 18.2681 48.8213 17.6875 48.6145 17.1562C48.4077 16.625 48.0479 16.1671 47.5808 15.8404C47.1136 15.5137 46.56 15.333 45.9901 15.3211C45.2277 15.3061 44.4904 15.5937 43.9394 16.1208C43.3884 16.648 43.0687 17.3719 43.05 18.1342ZM47.4417 17.2523C47.5599 17.4523 47.6372 17.6738 47.6693 17.9039C47.7013 18.134 47.6874 18.3681 47.6284 18.5928C47.5694 18.8175 47.4664 19.0283 47.3255 19.213C47.1845 19.3976 47.0083 19.5525 46.8071 19.6687C46.606 19.7848 46.3837 19.86 46.1533 19.8897C45.9229 19.9195 45.6889 19.9033 45.4648 19.842C45.2407 19.7808 45.031 19.6758 44.8477 19.533C44.6645 19.3902 44.5113 19.2125 44.3972 19.0102C44.1802 18.6137 44.1221 18.1495 44.2347 17.7117C44.3473 17.2739 44.6223 16.8954 45.0037 16.6529C45.2021 16.5296 45.4232 16.4471 45.6539 16.4102C45.8846 16.3733 46.1203 16.3827 46.3473 16.438C46.5743 16.4933 46.788 16.5932 46.9759 16.732C47.1638 16.8708 47.3222 17.0457 47.4417 17.2464" fill="#00B7C1"/>
<path d="M50.7137 18.6662C50.7481 18.3191 50.7445 17.9692 50.703 17.6229L49.8935 17.4282C49.8496 17.2137 49.7901 17.0026 49.7155 16.7968L50.3089 16.2116C50.1645 15.8936 49.9858 15.5923 49.776 15.313L48.9772 15.5504C48.8319 15.3841 48.6731 15.23 48.5024 15.0899L48.7244 14.2875C48.4405 14.0839 48.1352 13.9119 47.814 13.7747L47.2406 14.3813C47.034 14.3102 46.822 14.2554 46.6068 14.2175L46.3943 13.4092C46.0475 13.3755 45.6981 13.3799 45.3522 13.4222L45.1575 14.2317C44.9429 14.2735 44.7321 14.3331 44.5272 14.4098L43.9409 13.8163C43.7814 13.8857 43.6264 13.965 43.4768 14.0537C43.3269 14.1419 43.1819 14.2382 43.0424 14.3421L43.2797 15.1433C43.1143 15.2866 42.9607 15.443 42.8204 15.611L42.018 15.3961C41.8149 15.6797 41.6434 15.9846 41.5064 16.3053L42.1118 16.8798C42.0414 17.0866 41.9875 17.2985 41.9503 17.5137L41.142 17.725C41.1086 18.0722 41.1126 18.422 41.1539 18.7683L41.9646 18.9618C42.0069 19.177 42.066 19.3885 42.1414 19.5944L41.548 20.1796C41.6181 20.3383 41.6974 20.4929 41.7854 20.6425C41.874 20.7928 41.9707 20.9382 42.075 21.0781L42.875 20.8407C43.0209 21.0062 43.1796 21.1598 43.3498 21.3001L43.129 22.1049C43.4125 22.307 43.7169 22.4782 44.037 22.6153L44.6127 22.0099C44.819 22.082 45.031 22.1364 45.2465 22.1725L45.4578 22.9808C45.805 23.0137 46.1548 23.0097 46.5012 22.969L46.6946 22.1583C46.9097 22.1167 47.121 22.0571 47.3261 21.9802L47.9196 22.5737C48.0781 22.5031 48.2326 22.4238 48.3825 22.3363C48.5323 22.247 48.6773 22.1499 48.8169 22.0455L48.5795 21.2467C48.7447 21.1027 48.8983 20.9459 49.0389 20.7778L49.8425 20.9986C50.0459 20.7152 50.2174 20.4103 50.3541 20.0894L49.7487 19.5137C49.8197 19.3075 49.8741 19.0959 49.9113 18.8811L50.7137 18.6662ZM45.8649 21.3001C45.2507 21.2873 44.654 21.0926 44.1504 20.7406C43.6468 20.3887 43.2588 19.8953 43.0357 19.3229C42.8125 18.7504 42.7641 18.1246 42.8965 17.5247C43.029 16.9247 43.3364 16.3775 43.7799 15.9523C44.2234 15.5271 44.783 15.2429 45.388 15.1358C45.993 15.0286 46.6162 15.1033 47.1788 15.3504C47.7413 15.5974 48.218 16.0057 48.5484 16.5237C48.8789 17.0417 49.0483 17.646 49.0353 18.2603C49.017 19.0835 48.6729 19.8657 48.0785 20.4356C47.4842 21.0054 46.6882 21.3163 45.8649 21.3001Z" fill="#00B7C1"/>
<path d="M73.1419 22.3248C72.1017 21.647 70.9669 21.127 69.7744 20.7817C70.9725 21.1119 72.1096 21.6329 73.1419 22.3248Z" fill="#063A4F"/>
<path d="M61.8967 59.6205V42.5092C61.9093 42.2501 62.0211 42.0058 62.2089 41.8268C62.3967 41.6479 62.6462 41.5481 62.9056 41.5481C63.165 41.5481 63.4145 41.6479 63.6024 41.8268C63.7902 42.0058 63.902 42.2501 63.9145 42.5092V58.6104H74.6411C74.7778 58.6038 74.9143 58.625 75.0425 58.6727C75.1706 58.7204 75.2878 58.7936 75.3868 58.888C75.4859 58.9823 75.5647 59.0958 75.6186 59.2215C75.6724 59.3472 75.7002 59.4826 75.7002 59.6193C75.7002 59.7561 75.6724 59.8915 75.6186 60.0172C75.5647 60.1429 75.4859 60.2564 75.3868 60.3507C75.2878 60.445 75.1706 60.5183 75.0425 60.566C74.9143 60.6137 74.7778 60.6349 74.6411 60.6283H62.908C62.6401 60.6283 62.3832 60.5218 62.1937 60.3324C62.0043 60.143 61.8979 59.8861 61.8979 59.6182" fill="#065072"/>
<path d="M74.3881 59.659C74.3881 59.1151 74.5494 58.5834 74.8516 58.1311C75.1537 57.6788 75.5833 57.3263 76.0858 57.1182C76.5883 56.91 77.1413 56.8555 77.6748 56.9617C78.2083 57.0678 78.6983 57.3297 79.0829 57.7143C79.4676 58.099 79.7295 58.589 79.8356 59.1225C79.9417 59.656 79.8873 60.2089 79.6791 60.7115C79.471 61.214 79.1185 61.6435 78.6662 61.9457C78.2139 62.2479 77.6822 62.4092 77.1383 62.4092C76.4092 62.4083 75.7102 62.1182 75.1946 61.6027C74.6791 61.0871 74.389 60.3881 74.3881 59.659ZM78.1424 59.659C78.1422 59.4605 78.0831 59.2664 77.9726 59.1014C77.8621 58.9365 77.7052 58.808 77.5217 58.7321C77.3382 58.6563 77.1363 58.6366 76.9416 58.6755C76.7469 58.7143 76.5681 58.8101 76.4278 58.9506C76.2875 59.091 76.1919 59.27 76.1533 59.4647C76.1146 59.6595 76.1346 59.8613 76.2106 60.0448C76.2867 60.2282 76.4154 60.3849 76.5805 60.4952C76.7456 60.6055 76.9397 60.6644 77.1383 60.6644C77.4044 60.6637 77.6594 60.5577 77.8476 60.3696C78.0358 60.1814 78.1418 59.9263 78.1424 59.6602" fill="#EBAB21"/>
<path d="M39.7768 70.4614V43.0176C39.7894 42.7584 39.9012 42.5141 40.089 42.3351C40.2768 42.1562 40.5263 42.0564 40.7857 42.0564C41.0451 42.0564 41.2946 42.1562 41.4824 42.3351C41.6703 42.5141 41.7821 42.7584 41.7946 43.0176V70.4614C41.8013 70.598 41.7801 70.7345 41.7324 70.8627C41.6847 70.9909 41.6114 71.108 41.5171 71.2071C41.4227 71.3061 41.3093 71.3849 41.1835 71.4388C41.0578 71.4927 40.9225 71.5204 40.7857 71.5204C40.6489 71.5204 40.5136 71.4927 40.3879 71.4388C40.2622 71.3849 40.1487 71.3061 40.0544 71.2071C39.96 71.108 39.8868 70.9909 39.8391 70.8627C39.7913 70.7345 39.7702 70.598 39.7768 70.4614Z" fill="#065072"/>
<path d="M37.9397 72.5233C37.9397 71.9793 38.101 71.4476 38.4032 70.9953C38.7054 70.5431 39.1349 70.1906 39.6374 69.9824C40.14 69.7743 40.6929 69.7198 41.2264 69.8259C41.7599 69.932 42.25 70.194 42.6346 70.5786C43.0192 70.9632 43.2811 71.4532 43.3872 71.9867C43.4934 72.5202 43.4389 73.0732 43.2307 73.5757C43.0226 74.0783 42.6701 74.5078 42.2178 74.81C41.7656 75.1122 41.2338 75.2735 40.6899 75.2735C39.9608 75.2725 39.2618 74.9825 38.7463 74.4669C38.2307 73.9514 37.9406 73.2524 37.9397 72.5233ZM41.6941 72.5233C41.6941 72.3247 41.6352 72.1305 41.5248 71.9654C41.4145 71.8002 41.2577 71.6715 41.0742 71.5955C40.8907 71.5195 40.6888 71.4996 40.494 71.5384C40.2992 71.5771 40.1203 71.6728 39.9798 71.8132C39.8394 71.9536 39.7438 72.1326 39.705 72.3274C39.6663 72.5222 39.6862 72.7241 39.7622 72.9076C39.8382 73.091 39.9669 73.2479 40.132 73.3582C40.2971 73.4685 40.4913 73.5274 40.6899 73.5274C40.956 73.5268 41.2111 73.4208 41.3993 73.2326C41.5874 73.0445 41.6934 72.7894 41.6941 72.5233Z" fill="#EBAB21"/>
<path d="M10.4644 64.887V60.7599C10.4644 60.492 10.5708 60.2351 10.7602 60.0457C10.9496 59.8562 11.2066 59.7498 11.4745 59.7498H17.0532V42.0367C17.0466 41.9001 17.0678 41.7636 17.1155 41.6354C17.1632 41.5072 17.2364 41.3901 17.3308 41.291C17.4251 41.192 17.5386 41.1132 17.6643 41.0593C17.79 41.0054 17.9253 40.9777 18.0621 40.9777C18.1989 40.9777 18.3342 41.0054 18.46 41.0593C18.5857 41.1132 18.6991 41.192 18.7935 41.291C18.8878 41.3901 18.9611 41.5072 19.0088 41.6354C19.0565 41.7636 19.0777 41.9001 19.071 42.0367V60.7599C19.071 61.0278 18.9646 61.2847 18.7752 61.4742C18.5858 61.6636 18.3288 61.77 18.0609 61.77H12.4822V64.887C12.4696 65.1461 12.3578 65.3904 12.17 65.5694C11.9822 65.7483 11.7327 65.8481 11.4733 65.8481C11.2139 65.8481 10.9644 65.7483 10.7765 65.5694C10.5887 65.3904 10.4769 65.1461 10.4644 64.887Z" fill="#065072"/>
<path d="M8.87686 66.9985C8.87686 66.4547 9.0381 65.923 9.34019 65.4708C9.64228 65.0186 10.0717 64.6661 10.5741 64.4579C11.0765 64.2496 11.6293 64.195 12.1627 64.301C12.6961 64.4069 13.1862 64.6686 13.5709 65.053C13.9556 65.4373 14.2177 65.9272 14.3241 66.4605C14.4305 66.9938 14.3764 67.5467 14.1686 68.0493C13.9608 68.5519 13.6087 68.9816 13.1567 69.284C12.7048 69.5865 12.1733 69.7482 11.6294 69.7487C10.9003 69.7477 10.2013 69.4577 9.68579 68.9421C9.17023 68.4266 8.88018 67.7276 8.87924 66.9985H8.87686ZM12.6336 66.9985C12.6336 66.7999 12.5747 66.6057 12.4644 66.4406C12.354 66.2755 12.1972 66.1468 12.0137 66.0708C11.8302 65.9947 11.6283 65.9749 11.4335 66.0136C11.2387 66.0524 11.0598 66.148 10.9194 66.2884C10.7789 66.4289 10.6833 66.6078 10.6446 66.8026C10.6058 66.9974 10.6257 67.1993 10.7017 67.3828C10.7777 67.5663 10.9064 67.7231 11.0715 67.8334C11.2367 67.9438 11.4308 68.0027 11.6294 68.0027C11.8957 68.0023 12.1509 67.8964 12.3391 67.7082C12.5274 67.5199 12.6333 67.2647 12.6336 66.9985Z" fill="#EBAB21"/>
</svg>
