<svg width="95" height="105" viewBox="0 0 95 105" fill="none" xmlns="http://www.w3.org/2000/svg">
<path d="M76.9127 80.2109V93.6744H35.134C37.3274 93.4933 39.3724 92.4939 40.8628 90.8745C42.3533 89.2552 43.1801 87.1345 43.1791 84.9336V80.2109H76.9127Z" fill="#063A4F"/>
<path d="M76.9126 24.7381V80.2111H43.179V84.9338C43.1801 87.1347 42.3532 89.2554 40.8628 90.8747C39.3723 92.4941 37.3273 93.4935 35.1339 93.6746H34.933C33.3575 93.6762 31.7971 93.367 30.3412 92.7648C28.8853 92.1626 27.5624 91.2792 26.4483 90.1651C25.3342 89.051 24.4508 87.7282 23.8486 86.2723C23.2464 84.8163 22.9373 83.256 22.9388 81.6804V21.5146C22.939 20.3628 22.7123 19.2222 22.2716 18.158C21.8309 17.0938 21.1849 16.1268 20.3704 15.3123C19.5559 14.4979 18.5889 13.8518 17.5247 13.4111C16.4605 12.9704 15.3199 12.7437 14.1681 12.7439H64.9184C68.0995 12.7439 71.1503 14.0076 73.3996 16.2569C75.649 18.5063 76.9126 21.557 76.9126 24.7381Z" fill="#065072"/>
<g opacity="0.3">
<g opacity="0.3">
<path opacity="0.3" d="M71.5153 49.176H28.3362V52.9497H71.5153V49.176Z" fill="#00848A"/>
</g>
</g>
<g opacity="0.5">
<g opacity="0.5">
<path opacity="0.5" d="M38.161 49.2661H28.3812V52.9153H38.161V49.2661Z" fill="#00848A"/>
</g>
</g>
<g opacity="0.5">
<g opacity="0.5">
<path opacity="0.5" d="M54.7504 49.2661H44.9706V52.9153H54.7504V49.2661Z" fill="#00848A"/>
</g>
</g>
<g opacity="0.5">
<g opacity="0.5">
<path opacity="0.5" d="M71.5153 49.2661H61.7355V52.9153H71.5153V49.2661Z" fill="#00848A"/>
</g>
</g>
<g opacity="0.3">
<g opacity="0.3">
<path opacity="0.3" d="M71.5153 62.3938H28.3362V66.1675H71.5153V62.3938Z" fill="#00848A"/>
</g>
</g>
<g opacity="0.5">
<g opacity="0.5">
<path opacity="0.5" d="M38.161 62.4866H28.3812V66.1358H38.161V62.4866Z" fill="#00848A"/>
</g>
</g>
<g opacity="0.5">
<g opacity="0.5">
<path opacity="0.5" d="M54.7504 62.4866H44.9706V66.1358H54.7504V62.4866Z" fill="#00848A"/>
</g>
</g>
<g opacity="0.5">
<g opacity="0.5">
<path opacity="0.5" d="M71.5153 62.4866H61.7355V66.1358H71.5153V62.4866Z" fill="#00848A"/>
</g>
</g>
<g opacity="0.3">
<g opacity="0.3">
<path opacity="0.3" d="M71.5153 35.9556H28.3362V39.7292H71.5153V35.9556Z" fill="#00848A"/>
</g>
</g>
<g opacity="0.5">
<g opacity="0.5">
<path opacity="0.5" d="M38.161 36.0471H28.3812V39.6963H38.161V36.0471Z" fill="#00848A"/>
</g>
</g>
<g opacity="0.5">
<g opacity="0.5">
<path opacity="0.5" d="M54.7504 36.0471H44.9706V39.6963H54.7504V36.0471Z" fill="#00848A"/>
</g>
</g>
<g opacity="0.5">
<g opacity="0.5">
<path opacity="0.5" d="M71.5153 36.0471H61.7355V39.6963H71.5153V36.0471Z" fill="#00848A"/>
</g>
</g>
<path d="M93.5096 61.6935V105H51.2751V48.5044H81.0266L93.5096 61.6935Z" fill="#00848A"/>
<path d="M94.3552 62.5855V103.574H52.575V47.8252H80.3864V62.5855H94.3552Z" fill="#0099A0"/>
<path d="M94.3552 62.5855H80.3865V47.8252L81.0282 48.5044L93.5096 61.6935L94.3552 62.5855Z" fill="#00B7C1"/>
<path d="M57.0339 69.0354H77.6578C77.8169 69.0354 77.9694 69.0986 78.0819 69.2111C78.1944 69.3235 78.2575 69.4761 78.2575 69.6351V70.1764C78.2575 70.3354 78.1944 70.4879 78.0819 70.6004C77.9694 70.7129 77.8169 70.7761 77.6578 70.7761H57.0339C56.8748 70.7761 56.7223 70.7129 56.6098 70.6004C56.4973 70.4879 56.4341 70.3354 56.4341 70.1764V69.6351C56.4341 69.4761 56.4973 69.3235 56.6098 69.2111C56.7223 69.0986 56.8748 69.0354 57.0339 69.0354Z" fill="#0A4649"/>
<path d="M57.0339 73.0835H77.6578C77.8169 73.0835 77.9694 73.1467 78.0819 73.2591C78.1944 73.3716 78.2575 73.5242 78.2575 73.6832V74.2244C78.2575 74.3835 78.1944 74.536 78.0819 74.6485C77.9694 74.761 77.8169 74.8242 77.6578 74.8242H57.0339C56.8748 74.8242 56.7223 74.761 56.6098 74.6485C56.4973 74.536 56.4341 74.3835 56.4341 74.2244V73.6832C56.4341 73.5242 56.4973 73.3716 56.6098 73.2591C56.7223 73.1467 56.8748 73.0835 57.0339 73.0835Z" fill="#0A4649"/>
<path d="M57.0339 77.1316H77.6578C77.8169 77.1316 77.9694 77.1948 78.0819 77.3072C78.1944 77.4197 78.2575 77.5722 78.2575 77.7313V78.2725C78.2575 78.4316 78.1944 78.5841 78.0819 78.6966C77.9694 78.8091 77.8169 78.8723 77.6578 78.8723H57.0339C56.8748 78.8723 56.7223 78.8091 56.6098 78.6966C56.4973 78.5841 56.4341 78.4316 56.4341 78.2725V77.7313C56.4341 77.5722 56.4973 77.4197 56.6098 77.3072C56.7223 77.1948 56.8748 77.1316 57.0339 77.1316Z" fill="#0A4649"/>
<path d="M57.0339 89.6565H77.6578C77.8169 89.6565 77.9694 89.7197 78.0819 89.8321C78.1944 89.9446 78.2575 90.0972 78.2575 90.2562V90.7974C78.2575 90.9565 78.1944 91.109 78.0819 91.2215C77.9694 91.334 77.8169 91.3971 77.6578 91.3971H57.0339C56.8748 91.3971 56.7223 91.334 56.6098 91.2215C56.4973 91.109 56.4341 90.9565 56.4341 90.7974V90.2562C56.4341 90.0972 56.4973 89.9446 56.6098 89.8321C56.7223 89.7197 56.8748 89.6565 57.0339 89.6565Z" fill="#0A4649"/>
<path d="M57.0339 65.3279H68.6622C68.8213 65.3279 68.9738 65.3911 69.0863 65.5035C69.1987 65.616 69.2619 65.7685 69.2619 65.9276V66.4673C69.2619 66.6264 69.1987 66.7789 69.0863 66.8914C68.9738 67.0038 68.8213 67.067 68.6622 67.067H57.0339C56.8748 67.067 56.7223 67.0038 56.6098 66.8914C56.4973 66.7789 56.4341 66.6264 56.4341 66.4673V65.9276C56.4341 65.7685 56.4973 65.616 56.6098 65.5035C56.7223 65.3911 56.8748 65.3279 57.0339 65.3279Z" fill="#0B696D"/>
<path d="M57.0339 94.6731H68.6622C68.8213 94.6731 68.9738 94.7363 69.0863 94.8487C69.1987 94.9612 69.2619 95.1138 69.2619 95.2728V95.814C69.2619 95.9731 69.1987 96.1256 69.0863 96.2381C68.9738 96.3506 68.8213 96.4138 68.6622 96.4138H57.0339C56.8748 96.4138 56.7223 96.3506 56.6098 96.2381C56.4973 96.1256 56.4341 95.9731 56.4341 95.814V95.2728C56.4341 95.1138 56.4973 94.9612 56.6098 94.8487C56.7223 94.7363 56.8748 94.6731 57.0339 94.6731Z" fill="#0B696D"/>
<path d="M57.0339 85.6084H68.6622C68.8213 85.6084 68.9738 85.6716 69.0863 85.784C69.1987 85.8965 69.2619 86.0491 69.2619 86.2081V86.7493C69.2619 86.9084 69.1987 87.0609 69.0863 87.1734C68.9738 87.2859 68.8213 87.3491 68.6622 87.3491H57.0339C56.8748 87.3491 56.7223 87.2859 56.6098 87.1734C56.4973 87.0609 56.4341 86.9084 56.4341 86.7493V86.2081C56.4341 86.0491 56.4973 85.8965 56.6098 85.784C56.7223 85.6716 56.8748 85.6084 57.0339 85.6084Z" fill="#0B696D"/>
<path d="M22.9389 21.5146V26.2373H5.3974V21.5146C5.3974 19.1885 6.32146 16.9576 7.96629 15.3128C9.61112 13.668 11.842 12.7439 14.1681 12.7439C16.4943 12.7439 18.7252 13.668 20.37 15.3128C22.0148 16.9576 22.9389 19.1885 22.9389 21.5146Z" fill="#063A4F"/>
<path d="M33.059 77.5124H30.3603C30.1813 77.5124 30.0097 77.4413 29.8832 77.3148C29.7567 77.1883 29.6856 77.0167 29.6856 76.8378C29.6856 76.6588 29.7567 76.4872 29.8832 76.3607C30.0097 76.2342 30.1813 76.1631 30.3603 76.1631H33.059C33.2379 76.1631 33.4095 76.2342 33.536 76.3607C33.6626 76.4872 33.7336 76.6588 33.7336 76.8378C33.7336 77.0167 33.6626 77.1883 33.536 77.3148C33.4095 77.4413 33.2379 77.5124 33.059 77.5124Z" fill="#036A7E"/>
<path d="M33.059 81.5603H30.3603C30.1813 81.5603 30.0097 81.4892 29.8832 81.3627C29.7567 81.2361 29.6856 81.0645 29.6856 80.8856C29.6856 80.7067 29.7567 80.5351 29.8832 80.4085C30.0097 80.282 30.1813 80.2109 30.3603 80.2109H33.059C33.2379 80.2109 33.4095 80.282 33.536 80.4085C33.6626 80.5351 33.7336 80.7067 33.7336 80.8856C33.7336 81.0645 33.6626 81.2361 33.536 81.3627C33.4095 81.4892 33.2379 81.5603 33.059 81.5603Z" fill="#036A7E"/>
<path d="M39.8057 77.5124H37.107C36.9281 77.5124 36.7564 77.4413 36.6299 77.3148C36.5034 77.1883 36.4323 77.0167 36.4323 76.8378C36.4323 76.6588 36.5034 76.4872 36.6299 76.3607C36.7564 76.2342 36.9281 76.1631 37.107 76.1631H39.8057C39.9846 76.1631 40.1562 76.2342 40.2827 76.3607C40.4093 76.4872 40.4803 76.6588 40.4803 76.8378C40.4803 77.0167 40.4093 77.1883 40.2827 77.3148C40.1562 77.4413 39.9846 77.5124 39.8057 77.5124Z" fill="#036A7E"/>
<path d="M46.5524 77.5124H43.8537C43.6748 77.5124 43.5031 77.4413 43.3766 77.3148C43.2501 77.1883 43.179 77.0167 43.179 76.8378C43.179 76.6588 43.2501 76.4872 43.3766 76.3607C43.5031 76.2342 43.6748 76.1631 43.8537 76.1631H46.5524C46.7313 76.1631 46.9029 76.2342 47.0294 76.3607C47.156 76.4872 47.2271 76.6588 47.2271 76.8378C47.2271 77.0167 47.156 77.1883 47.0294 77.3148C46.9029 77.4413 46.7313 77.5124 46.5524 77.5124Z" fill="#036A7E"/>
<path d="M70.1659 30.2854H29.6856C29.3277 30.2854 28.9845 30.1432 28.7315 29.8901C28.4784 29.6371 28.3362 29.2939 28.3362 28.936C28.3362 28.5781 28.4784 28.2349 28.7315 27.9819C28.9845 27.7288 29.3277 27.5867 29.6856 27.5867H70.1659C70.5238 27.5867 70.867 27.7288 71.1201 27.9819C71.3731 28.2349 71.5153 28.5781 71.5153 28.936C71.5153 29.2939 71.3731 29.6371 71.1201 29.8901C70.867 30.1432 70.5238 30.2854 70.1659 30.2854Z" fill="white"/>
<path d="M17.5415 52.7745C17.5415 53.2516 17.3519 53.7092 17.0145 54.0466C16.6771 54.384 16.2195 54.5736 15.7424 54.5736H1.79913C1.32197 54.5736 0.864352 54.384 0.526951 54.0466C0.189549 53.7092 0 53.2516 0 52.7745C0 52.2973 0.189549 51.8397 0.526951 51.5023C0.864352 51.1649 1.32197 50.9753 1.79913 50.9753H15.7424C16.2195 50.9753 16.6771 51.1649 17.0145 51.5023C17.3519 51.8397 17.5415 52.2973 17.5415 52.7745Z" fill="#F8B318"/>
<path d="M19.675 59.1853C19.8427 59.3524 19.9758 59.551 20.0666 59.7697C20.1574 59.9884 20.2041 60.2229 20.2041 60.4597C20.2041 60.6964 20.1574 60.9309 20.0666 61.1496C19.9758 61.3683 19.8427 61.5669 19.675 61.734L9.81576 71.5888C9.64841 71.7561 9.44973 71.8889 9.23107 71.9794C9.01241 72.07 8.77806 72.1166 8.54138 72.1166C8.30471 72.1166 8.07035 72.07 7.85169 71.9794C7.63303 71.8889 7.43436 71.7561 7.267 71.5888C7.09965 71.4214 6.96689 71.2227 6.87632 71.0041C6.78575 70.7854 6.73914 70.551 6.73914 70.3144C6.73914 70.0777 6.78575 69.8433 6.87632 69.6247C6.96689 69.406 7.09965 69.2073 7.267 69.04L17.1262 59.1808C17.2934 59.013 17.492 58.88 17.7107 58.7892C17.9293 58.6984 18.1638 58.6516 18.4006 58.6516C18.6374 58.6516 18.8718 58.6984 19.0905 58.7892C19.3092 58.88 19.5078 59.013 19.675 59.1808" fill="#F8B318"/>
<path d="M19.675 47.2614C19.8427 47.0943 19.9758 46.8957 20.0666 46.677C20.1574 46.4583 20.2041 46.2238 20.2041 45.987C20.2041 45.7502 20.1574 45.5158 20.0666 45.2971C19.9758 45.0784 19.8427 44.8798 19.675 44.7127L9.81576 34.8579C9.47778 34.52 9.01937 34.3301 8.54138 34.3301C8.0634 34.3301 7.60499 34.52 7.267 34.8579C6.92901 35.1959 6.73914 35.6543 6.73914 36.1323C6.73914 36.6103 6.92901 37.0687 7.267 37.4067L17.1262 47.2659C17.2934 47.4336 17.492 47.5667 17.7107 47.6575C17.9293 47.7483 18.1638 47.7951 18.4006 47.7951C18.6374 47.7951 18.8718 47.7483 19.0905 47.6575C19.3092 47.5667 19.5078 47.4336 19.675 47.2659" fill="#F8B318"/>
<path d="M75.4254 0.340332C77.6867 0.340036 79.8974 1.01034 81.7779 2.26649C83.6583 3.52263 85.124 5.30819 85.9896 7.39735C86.8552 9.48651 87.0818 11.7854 86.6408 14.0034C86.1998 16.2214 85.111 18.2588 83.5121 19.8579C81.9131 21.4571 79.8759 22.5461 77.658 22.9874C75.4401 23.4287 73.1411 23.2024 71.0518 22.337C68.9625 21.4717 67.1768 20.0063 65.9204 18.126C64.664 16.2458 63.9934 14.0352 63.9934 11.7738C63.9934 8.7417 65.1978 5.83379 67.3417 3.68964C69.4855 1.5455 72.3933 0.34073 75.4254 0.340332Z" fill="#00848A"/>
<path d="M75.3639 9.8322e-08C77.6253 1.17764e-07 79.8359 0.670597 81.7162 1.92699C83.5964 3.18338 85.0619 4.96913 85.9272 7.0584C86.7925 9.14768 87.0189 11.4466 86.5776 13.6646C86.1363 15.8825 85.0472 17.9197 83.4481 19.5186C81.8489 21.1176 79.8115 22.2064 77.5936 22.6474C75.3756 23.0884 73.0767 22.8617 70.9875 21.9961C68.8983 21.1305 67.1128 19.6649 65.8566 17.7844C64.6005 15.904 63.9302 13.6933 63.9305 11.4319C63.9305 9.93056 64.2262 8.44387 64.8008 7.05678C65.3754 5.6697 66.2176 4.40938 67.2794 3.34781C68.3411 2.28624 69.6015 1.4442 70.9887 0.869775C72.3758 0.295354 73.8625 -0.000196805 75.3639 9.8322e-08Z" fill="#EBAB21"/>
<path d="M73.0836 14.5578C73.1128 14.6127 73.1496 14.6632 73.193 14.7077L73.6548 15.168C73.767 15.2788 73.9184 15.3409 74.0761 15.3409C74.2338 15.3409 74.3851 15.2788 74.4974 15.168L80.9637 8.70164C81.0745 8.5894 81.1366 8.43804 81.1366 8.28034C81.1366 8.12264 81.0745 7.97128 80.9637 7.85905L80.5035 7.39727C80.3912 7.28648 80.2399 7.22437 80.0822 7.22437C79.9244 7.22437 79.7731 7.28648 79.6609 7.39727L74.0971 12.9611L72.256 11.12C72.1437 11.0092 71.9924 10.9471 71.8347 10.9471C71.677 10.9471 71.5256 11.0092 71.4134 11.12L70.9516 11.5802C70.8408 11.6925 70.7787 11.8438 70.7787 12.0015C70.7787 12.1592 70.8408 12.3106 70.9516 12.4228L73.0836 14.5578Z" fill="white"/>
</svg>
