<svg width="162" height="105" viewBox="0 0 162 105" fill="none" xmlns="http://www.w3.org/2000/svg">
<path d="M120 69.375H5.12176e-07V7.99166C-0.000273315 7.43456 0.109253 6.88288 0.32232 6.36813C0.535387 5.85338 0.847815 5.38568 1.24174 4.99175C1.63567 4.59782 2.10338 4.28539 2.61813 4.07232C3.13288 3.85926 3.68457 3.74973 4.24167 3.75H115.758C116.315 3.74973 116.867 3.85926 117.382 4.07232C117.897 4.28539 118.364 4.59782 118.758 4.99175C119.152 5.38568 119.465 5.85338 119.678 6.36813C119.891 6.88288 120 7.43456 120 7.99166V69.375Z" fill="#065072"/>
<path d="M114.375 69.375H5.625V13.7917C5.625 13.2347 5.73472 12.6831 5.94788 12.1685C6.16104 11.6539 6.47348 11.1863 6.86735 10.7924C7.26123 10.3985 7.72883 10.0861 8.24345 9.87292C8.75807 9.65976 9.30964 9.55005 9.86667 9.55005H110.133C110.69 9.55005 111.242 9.65976 111.757 9.87292C112.271 10.0861 112.739 10.3985 113.133 10.7924C113.527 11.1863 113.839 11.6539 114.052 12.1685C114.265 12.6831 114.375 13.2347 114.375 13.7917V69.375Z" fill="#063A4F"/>
<path d="M28.125 3.75H13.125V2.32709C13.125 1.70991 13.3702 1.118 13.8066 0.681588C14.243 0.245175 14.8349 0 15.4521 0H25.7979C26.1035 0 26.4061 0.0601918 26.6885 0.177139C26.9708 0.294086 27.2273 0.465498 27.4434 0.681588C27.6595 0.897677 27.8309 1.15421 27.9479 1.43655C28.0648 1.71888 28.125 2.02149 28.125 2.32709V3.75Z" fill="#DA9A28"/>
<path d="M108.75 3.75H93.75V2.32709C93.75 1.70991 93.9952 1.118 94.4316 0.681588C94.868 0.245175 95.4599 0 96.0771 0H106.423C106.729 0 107.031 0.0601918 107.313 0.177139C107.596 0.294086 107.852 0.465498 108.068 0.681588C108.285 0.897677 108.456 1.15421 108.573 1.43655C108.69 1.71888 108.75 2.02149 108.75 2.32709V3.75Z" fill="#DA9A28"/>
<path d="M74.1062 82.5H5.9375C5.85462 82.5 5.77514 82.4671 5.71653 82.4085C5.65793 82.3499 5.625 82.2704 5.625 82.1875V47.1875C5.625 47.1046 5.65793 47.0251 5.71653 46.9665C5.77514 46.9079 5.85462 46.875 5.9375 46.875H74.1062C74.1891 46.875 74.2686 46.9079 74.3272 46.9665C74.3858 47.0251 74.4187 47.1046 74.4187 47.1875V82.1875C74.4187 82.2704 74.3858 82.3499 74.3272 82.4085C74.2686 82.4671 74.1891 82.5 74.1062 82.5Z" fill="#00848A"/>
<path d="M35.1083 64.6876C35.1083 66.8743 34.4599 69.0119 33.245 70.8301C32.0301 72.6483 30.3034 74.0654 28.2831 74.9022C26.2628 75.7391 24.0398 75.958 21.8951 75.5314C19.7504 75.1048 17.7803 74.0518 16.2341 72.5056C14.6879 70.9593 13.6348 68.9893 13.2082 66.8446C12.7816 64.6999 13.0006 62.4768 13.8374 60.4566C14.6742 58.4363 16.0913 56.7095 17.9095 55.4947C19.7277 54.2798 21.8653 53.6313 24.052 53.6313C26.9843 53.6313 29.7965 54.7962 31.87 56.8696C33.9434 58.9431 35.1083 61.7553 35.1083 64.6876Z" fill="#0099A0"/>
<path d="M68.5833 70.5229C68.5833 71.8591 68.1871 73.1654 67.4447 74.2764C66.7023 75.3875 65.6471 76.2534 64.4126 76.7648C63.178 77.2762 61.8196 77.41 60.509 77.1493C59.1984 76.8886 57.9945 76.2451 57.0497 75.3002C56.1048 74.3554 55.4613 73.1515 55.2006 71.8409C54.9399 70.5303 55.0737 69.1719 55.5851 67.9373C56.0965 66.7028 56.9624 65.6476 58.0735 64.9052C59.1845 64.1628 60.4908 63.7666 61.8271 63.7666C63.6189 63.7666 65.3374 64.4784 66.6044 65.7455C67.8715 67.0125 68.5833 68.731 68.5833 70.5229Z" fill="#0099A0"/>
<path d="M67.9688 53.9375H55.6834V58.8521H67.9688V53.9375Z" fill="#0099A0"/>
<path d="M35.625 46.875H30V69.375H35.625V46.875Z" fill="#0B696D"/>
<path d="M100.937 73.125H32.7687C32.6859 73.125 32.6064 73.0921 32.5478 73.0335C32.4892 72.9749 32.4562 72.8954 32.4562 72.8125V37.8125C32.4562 37.7296 32.4892 37.6501 32.5478 37.5915C32.6064 37.5329 32.6859 37.5 32.7687 37.5H100.937C101.02 37.5 101.1 37.5329 101.158 37.5915C101.217 37.6501 101.25 37.7296 101.25 37.8125V72.8125C101.25 72.8954 101.217 72.9749 101.158 73.0335C101.1 73.0921 101.02 73.125 100.937 73.125Z" fill="#00848A"/>
<path d="M61.9396 55.3126C61.9396 57.4993 61.2912 59.6369 60.0763 61.4551C58.8614 63.2733 57.1347 64.6904 55.1144 65.5272C53.0941 66.3641 50.8711 66.583 48.7264 66.1564C46.5817 65.7298 44.6116 64.6768 43.0654 63.1306C41.5191 61.5843 40.4661 59.6143 40.0395 57.4696C39.6129 55.3249 39.8319 53.1018 40.6687 51.0816C41.5055 49.0613 42.9226 47.3345 44.7408 46.1197C46.559 44.9048 48.6966 44.2563 50.8833 44.2563C53.8156 44.2563 56.6278 45.4212 58.7013 47.4947C60.7747 49.5681 61.9396 52.3803 61.9396 55.3126Z" fill="#0099A0"/>
<path d="M95.4166 61.1479C95.4166 62.4841 95.0203 63.7904 94.2779 64.9014C93.5355 66.0125 92.4804 66.8785 91.2458 67.3898C90.0113 67.9012 88.6528 68.035 87.3422 67.7743C86.0316 67.5136 84.8278 66.8701 83.8829 65.9252C82.938 64.9804 82.2946 63.7765 82.0339 62.4659C81.7732 61.1554 81.907 59.7969 82.4183 58.5623C82.9297 57.3278 83.7957 56.2726 84.9067 55.5302C86.0178 54.7878 87.324 54.3916 88.6603 54.3916C90.4522 54.3916 92.1707 55.1034 93.4377 56.3705C94.7047 57.6375 95.4166 59.356 95.4166 61.1479Z" fill="#0099A0"/>
<path d="M94.8021 44.5647H82.5167V49.4793H94.8021V44.5647Z" fill="#0099A0"/>
<path d="M71.25 37.5H65.625V67.5H71.25V37.5Z" fill="#0B696D"/>
<path d="M158.354 31.8749H67.8125C67.7296 31.8749 67.6501 31.9078 67.5915 31.9664C67.5329 32.025 67.5 32.1045 67.5 32.1874V67.1874C67.5 67.2703 67.5329 67.3498 67.5915 67.4084C67.6501 67.467 67.7296 67.4999 67.8125 67.4999H135.981C136.064 67.4999 136.144 67.467 136.202 67.4084C136.261 67.3498 136.294 67.2703 136.294 67.1874V49.5603C136.294 49.4537 136.315 49.3482 136.356 49.2497C136.396 49.1513 136.456 49.0618 136.532 48.9865C136.607 48.9113 136.697 48.8516 136.795 48.811C136.894 48.7704 137 48.7496 137.106 48.7499H150.938C151.307 48.7502 151.674 48.6774 152.016 48.5358C152.357 48.3942 152.668 48.1864 152.929 47.9246C153.19 47.6627 153.397 47.3518 153.538 47.0097C153.679 46.6676 153.751 46.3011 153.75 45.9312C153.734 45.1763 153.421 44.4582 152.879 43.9328C152.337 43.4074 151.609 43.1171 150.854 43.1249H134.146C133.391 43.1328 132.664 42.8427 132.122 42.3178C131.58 41.7928 131.266 41.0752 131.25 40.3207C131.249 39.9506 131.32 39.5839 131.461 39.2416C131.602 38.8992 131.809 38.5881 132.07 38.326C132.332 38.0639 132.642 37.856 132.984 37.7142C133.326 37.5725 133.692 37.4996 134.062 37.4999H158.438C158.807 37.5002 159.174 37.4274 159.516 37.2858C159.857 37.1442 160.168 36.9364 160.429 36.6746C160.69 36.4127 160.897 36.1018 161.038 35.7597C161.179 35.4176 161.251 35.0511 161.25 34.6812C161.234 33.9263 160.921 33.2082 160.379 32.6828C159.837 32.1574 159.109 31.8671 158.354 31.8749ZM117.558 38.9395H129.85V43.852H117.558V38.9395ZM85.9271 60.7437C83.7404 60.7437 81.6027 60.0952 79.7846 58.8804C77.9664 57.6655 76.5493 55.9387 75.7124 53.9185C74.8756 51.8982 74.6567 49.6751 75.0833 47.5304C75.5099 45.3857 76.5629 43.4157 78.1091 41.8695C79.6554 40.3232 81.6254 39.2702 83.7701 38.8436C85.9148 38.417 88.1379 38.6359 90.1581 39.4728C92.1784 40.3096 93.9051 41.7267 95.12 43.5449C96.3349 45.3631 96.9833 47.5007 96.9833 49.6874C96.9833 51.1393 96.6974 52.5771 96.1417 53.9185C95.5861 55.2599 94.7717 56.4787 93.745 57.5054C92.7184 58.532 91.4995 59.3464 90.1581 59.9021C88.8167 60.4577 87.379 60.7437 85.9271 60.7437ZM123.702 62.2791C122.366 62.2791 121.06 61.8828 119.949 61.1404C118.837 60.3981 117.971 59.3429 117.46 58.1083C116.949 56.8738 116.815 55.5153 117.076 54.2048C117.336 52.8942 117.98 51.6903 118.925 50.7454C119.87 49.8006 121.073 49.1571 122.384 48.8964C123.695 48.6357 125.053 48.7695 126.288 49.2809C127.522 49.7922 128.577 50.6582 129.32 51.7693C130.062 52.8803 130.458 54.1866 130.458 55.5228C130.458 57.3147 129.747 59.0332 128.479 60.3002C127.212 61.5673 125.494 62.2791 123.702 62.2791Z" fill="#00848A"/>
<path d="M96.9833 49.6876C96.9833 51.8743 96.3349 54.0119 95.12 55.8301C93.9051 57.6483 92.1784 59.0654 90.1581 59.9022C88.1378 60.7391 85.9148 60.958 83.7701 60.5314C81.6254 60.1048 79.6553 59.0518 78.1091 57.5056C76.5628 55.9593 75.5098 53.9893 75.0832 51.8446C74.6566 49.6999 74.8756 47.4768 75.7124 45.4566C76.5492 43.4363 77.9663 41.7095 79.7845 40.4947C81.6027 39.2798 83.7403 38.6313 85.927 38.6313C88.8593 38.6313 91.6715 39.7962 93.745 41.8697C95.8184 43.9431 96.9833 46.7553 96.9833 49.6876Z" fill="#00848A"/>
<path d="M130.458 55.5229C130.458 56.8591 130.062 58.1654 129.32 59.2764C128.577 60.3875 127.522 61.2535 126.288 61.7648C125.053 62.2762 123.695 62.41 122.384 62.1493C121.073 61.8886 119.87 61.2451 118.925 60.3002C117.98 59.3554 117.336 58.1515 117.076 56.8409C116.815 55.5304 116.949 54.1719 117.46 52.9373C117.971 51.7028 118.837 50.6476 119.948 49.9052C121.06 49.1629 122.366 48.7666 123.702 48.7666C125.494 48.7666 127.212 49.4784 128.479 50.7455C129.746 52.0125 130.458 53.731 130.458 55.5229Z" fill="#00848A"/>
<path d="M129.844 38.9397H117.558V43.8522H129.844V38.9397Z" fill="#00848A"/>
<path d="M96.9833 49.6876C96.9833 51.8743 96.3349 54.0119 95.12 55.8301C93.9051 57.6483 92.1784 59.0654 90.1581 59.9022C88.1378 60.7391 85.9148 60.958 83.7701 60.5314C81.6254 60.1048 79.6553 59.0518 78.1091 57.5056C76.5628 55.9593 75.5098 53.9893 75.0832 51.8446C74.6566 49.6999 74.8756 47.4768 75.7124 45.4566C76.5492 43.4363 77.9663 41.7095 79.7845 40.4947C81.6027 39.2798 83.7403 38.6313 85.927 38.6313C88.8593 38.6313 91.6715 39.7962 93.745 41.8697C95.8184 43.9431 96.9833 46.7553 96.9833 49.6876Z" fill="#0099A0"/>
<path d="M130.458 55.5229C130.458 56.8591 130.062 58.1654 129.32 59.2764C128.577 60.3875 127.522 61.2535 126.288 61.7648C125.053 62.2762 123.695 62.41 122.384 62.1493C121.073 61.8886 119.87 61.2451 118.925 60.3002C117.98 59.3554 117.336 58.1515 117.076 56.8409C116.815 55.5304 116.949 54.1719 117.46 52.9373C117.971 51.7028 118.837 50.6476 119.948 49.9052C121.06 49.1629 122.366 48.7666 123.702 48.7666C125.494 48.7666 127.212 49.4784 128.479 50.7455C129.746 52.0125 130.458 53.731 130.458 55.5229Z" fill="#0099A0"/>
<path d="M129.844 38.9397H117.558V43.8522H129.844V38.9397Z" fill="#0099A0"/>
<path d="M111.892 105H8.10833C7.04345 105 5.98896 104.791 5.00509 104.383C4.02121 103.976 3.12725 103.379 2.37426 102.626C1.62128 101.873 1.02404 100.979 0.616652 99.9949C0.209267 99.011 -0.000273445 97.9565 2.67806e-07 96.8917V69.375H120V96.8917C120 97.9565 119.791 99.011 119.383 99.9949C118.976 100.979 118.379 101.873 117.626 102.626C116.873 103.379 115.979 103.976 114.995 104.383C114.011 104.791 112.957 105 111.892 105Z" fill="#065072"/>
<path d="M70.3125 96.3542H49.6875C47.4283 96.3498 45.2628 95.4505 43.6651 93.8531C42.0673 92.2558 41.1675 90.0905 41.1625 87.8313V78.75H46.3709V87.8313C46.372 88.7104 46.7218 89.5531 47.3436 90.1745C47.9655 90.796 48.8084 91.1453 49.6875 91.1458H70.3125C71.1913 91.1447 72.0337 90.7952 72.6551 90.1738C73.2765 89.5524 73.626 88.71 73.6271 87.8313V78.75H78.8354V87.8313C78.8305 90.0902 77.931 92.2551 76.3337 93.8524C74.7364 95.4497 72.5714 96.3492 70.3125 96.3542Z" fill="#F8B318"/>
<path d="M20.625 91.3543C19.7597 91.3543 18.9138 91.0977 18.1944 90.6169C17.4749 90.1362 16.9142 89.4529 16.583 88.6535C16.2519 87.8541 16.1653 86.9744 16.3341 86.1257C16.5029 85.2771 16.9196 84.4975 17.5314 83.8857C18.1433 83.2738 18.9228 82.8571 19.7715 82.6883C20.6202 82.5195 21.4998 82.6061 22.2992 82.9373C23.0987 83.2684 23.782 83.8292 24.2627 84.5486C24.7434 85.2681 25 86.114 25 86.9793C25 88.1396 24.5391 89.2524 23.7186 90.0728C22.8981 90.8933 21.7853 91.3543 20.625 91.3543ZM20.625 83.8543C20.0069 83.8543 19.4027 84.0375 18.8888 84.3809C18.3749 84.7243 17.9744 85.2124 17.7379 85.7834C17.5014 86.3544 17.4395 86.9827 17.56 87.5889C17.6806 88.1951 17.9783 88.7519 18.4153 89.189C18.8523 89.626 19.4092 89.9236 20.0153 90.0442C20.6215 90.1648 21.2499 90.1029 21.8209 89.8664C22.3919 89.6299 22.88 89.2293 23.2233 88.7154C23.5667 88.2015 23.75 87.5973 23.75 86.9793C23.75 86.1505 23.4208 85.3556 22.8347 84.7695C22.2487 84.1835 21.4538 83.8543 20.625 83.8543Z" fill="#F8B318"/>
<path d="M101.25 91.3543C100.385 91.3543 99.5388 91.0977 98.8194 90.6169C98.0999 90.1362 97.5392 89.4529 97.208 88.6535C96.8769 87.8541 96.7903 86.9744 96.9591 86.1257C97.1279 85.2771 97.5446 84.4975 98.1564 83.8857C98.7683 83.2738 99.5478 82.8571 100.396 82.6883C101.245 82.5195 102.125 82.6061 102.924 82.9373C103.724 83.2684 104.407 83.8292 104.888 84.5486C105.368 85.2681 105.625 86.114 105.625 86.9793C105.625 88.1396 105.164 89.2524 104.344 90.0728C103.523 90.8933 102.41 91.3543 101.25 91.3543ZM101.25 83.8543C100.632 83.8543 100.028 84.0375 99.5138 84.3809C98.9999 84.7243 98.5994 85.2124 98.3629 85.7834C98.1264 86.3544 98.0645 86.9827 98.185 87.5889C98.3056 88.1951 98.6033 88.7519 99.0403 89.189C99.4773 89.626 100.034 89.9236 100.64 90.0442C101.247 90.1648 101.875 90.1029 102.446 89.8664C103.017 89.6299 103.505 89.2293 103.848 88.7154C104.192 88.2015 104.375 87.5973 104.375 86.9793C104.375 86.1505 104.046 85.3556 103.46 84.7695C102.874 84.1835 102.079 83.8543 101.25 83.8543Z" fill="#F8B318"/>
<path d="M120 67.5H0V75H120V67.5Z" fill="#063A4F"/>
<path d="M154.688 60H143.438C142.692 60 141.976 59.7037 141.449 59.1762C140.921 58.6488 140.625 57.9334 140.625 57.1875C140.625 56.4416 140.921 55.7262 141.449 55.1988C141.976 54.6713 142.692 54.375 143.438 54.375H154.688C155.433 54.375 156.149 54.6713 156.676 55.1988C157.204 55.7262 157.5 56.4416 157.5 57.1875C157.5 57.9334 157.204 58.6488 156.676 59.1762C156.149 59.7037 155.433 60 154.688 60Z" fill="#00848A"/>
</svg>
