<svg width="81" height="80" viewBox="0 0 81 80" fill="none" xmlns="http://www.w3.org/2000/svg">
<path d="M5.70777 22.4424C5.70777 22.4424 5.29707 42.8001 5.70777 43.4174C6.11847 44.0348 22.1554 53.6947 22.7719 53.5918C23.3883 53.4889 22.8748 33.2342 22.8748 33.2342L17.7343 22.4424H5.70777Z" fill="#DA9A28"/>
<path d="M22.8751 12.8754V33.2339L12.1827 31.3853L5.70462 22.4377L12.9021 15.3431L22.8751 12.8754Z" fill="#B67E2B"/>
<path d="M5.70777 22.4424C5.70777 22.4424 0.102538 27.2661 0.0493153 28.0929C-0.000359215 28.869 15.2666 39.5056 16.3976 39.7131C17.5285 39.9207 22.873 33.2377 22.873 33.2377C22.873 33.2377 7.2468 23.2602 5.70777 22.4424Z" fill="#F8B318"/>
<path d="M5.70823 22.4422L22.8752 12.8763C22.8752 12.8763 17.0145 9.37869 15.8835 9.68294C14.7525 9.9872 0.652071 18.839 0.0417846 19.3535C-0.568502 19.868 5.70823 22.4422 5.70823 22.4422Z" fill="#F8B318"/>
<path d="M26.8198 0H48.0876C50.3593 0 52.2008 2.10496 52.2008 4.70134V52.4243C52.2008 55.0216 50.3593 57.1257 48.0876 57.1257H26.8198C24.5481 57.1257 22.7066 55.0207 22.7066 52.4243V4.70577C22.7066 2.10851 24.5481 0.00443549 26.8198 0.00443549" fill="#065072"/>
<path d="M30.3268 2.25122H27.8253C25.7674 2.25122 24.0997 4.15837 24.0997 6.50904V50.4825C24.0997 52.8349 25.7683 54.7403 27.8253 54.7403H47.0884C49.1463 54.7403 50.814 52.8332 50.814 50.4825V6.51081C50.814 4.15837 49.1454 2.25299 47.0884 2.25299H45.0047V3.21987C45.0047 4.18054 44.3243 4.95937 43.4834 4.95937H31.8472C31.0072 4.95937 30.3268 4.18054 30.3268 3.21987V2.25122Z" fill="#0099A0"/>
<path d="M50.7863 6.50769H24.0978V50.616H50.7863V6.50769Z" fill="#00B7C1"/>
<path d="M32.1359 2.25122H43.3526C43.577 2.25122 43.758 2.45879 43.758 2.71514V3.24205C43.758 3.49752 43.5806 3.70509 43.3526 3.70509H32.1359C31.9124 3.70509 31.7306 3.49752 31.7306 3.24205V2.71514C31.7306 2.45879 31.9124 2.25122 32.1359 2.25122Z" fill="white"/>
<path d="M32.3983 52.2301H43.3746C43.5981 52.2301 43.7799 52.4377 43.7799 52.694V53.1855C43.7799 53.4409 43.5981 53.6494 43.3746 53.6494H32.3983C32.1747 53.6494 31.9929 53.4409 31.9929 53.1855V52.6905C31.9929 52.4341 32.1747 52.2266 32.3983 52.2266" fill="#065072"/>
<path d="M40.2556 21.1648V21.6864C40.2609 21.8329 40.2078 21.9755 40.108 22.083C40.0082 22.1904 39.8699 22.2539 39.7234 22.2594H25.9201C25.7735 22.2539 25.6352 22.1904 25.5354 22.083C25.4356 21.9755 25.3826 21.8329 25.3878 21.6864V21.1648C25.3826 21.0184 25.4357 20.8758 25.5355 20.7685C25.6353 20.6612 25.7736 20.598 25.9201 20.5927H39.7243C39.8707 20.598 40.009 20.6612 40.1088 20.7685C40.2086 20.8758 40.2618 21.0184 40.2565 21.1648" fill="#00848A"/>
<path d="M40.814 27.9729V28.4945C40.814 28.8103 40.6304 29.0675 40.4033 29.0675H25.7999C25.5728 29.0675 25.3892 28.8103 25.3892 28.4945V27.9729C25.3892 27.6571 25.5728 27.4008 25.7999 27.4008H40.4033C40.6304 27.4008 40.814 27.6571 40.814 27.9729Z" fill="#00848A"/>
<path d="M40.0041 34.216V34.7367C40.0041 35.0533 39.8267 35.3097 39.6156 35.3097H25.7777C25.563 35.3097 25.3892 35.0533 25.3892 34.7367V34.216C25.3892 33.8993 25.5666 33.6429 25.7777 33.6429H39.6156C39.8302 33.6429 40.0041 33.8993 40.0041 34.216Z" fill="#00848A"/>
<path d="M42.909 40.4579V40.9812C42.909 41.2979 42.7006 41.5543 42.4433 41.5543H25.8556C25.5983 41.5543 25.3899 41.2979 25.3899 40.9812V40.4579C25.3899 40.1421 25.5983 39.8857 25.8556 39.8857H42.4433C42.7006 39.8857 42.909 40.1421 42.909 40.4579Z" fill="#00848A"/>
<path d="M34.1301 12.8124V13.4254C34.1301 13.7411 33.9181 13.9975 33.6555 13.9975H25.8637C25.5976 13.9975 25.3892 13.7411 25.3892 13.4254V12.8124C25.3892 12.4957 25.6021 12.2394 25.8637 12.2394H33.6555C33.9216 12.2394 34.1301 12.4957 34.1301 12.8124Z" fill="#00848A"/>
<path d="M78.7562 41.4248H44.5376C44.3377 41.4246 44.146 41.3451 44.0047 41.2037C43.8633 41.0624 43.7838 40.8707 43.7836 40.6708V14.8924C43.7838 14.6925 43.8633 14.5009 44.0047 14.3595C44.146 14.2182 44.3377 14.1387 44.5376 14.1384H78.7562C78.9561 14.1387 79.1477 14.2182 79.2891 14.3595C79.4304 14.5009 79.5099 14.6925 79.5102 14.8924V40.6664C79.5099 40.8663 79.4304 41.0579 79.2891 41.1993C79.1477 41.3406 78.9561 41.4201 78.7562 41.4204" fill="#063A4F"/>
<g opacity="0.3">
<g opacity="0.3">
<path opacity="0.3" d="M79.4281 19.3367H43.446V18.5942H79.4281" fill="#00848A"/>
</g>
</g>
<path d="M46.507 16.4901C46.507 16.6129 46.4706 16.7329 46.4024 16.835C46.3342 16.9372 46.2372 17.0167 46.1237 17.0637C46.0103 17.1107 45.8854 17.123 45.765 17.0991C45.6445 17.0751 45.5339 17.016 45.447 16.9291C45.3602 16.8423 45.3011 16.7317 45.2771 16.6112C45.2531 16.4908 45.2654 16.3659 45.3124 16.2525C45.3594 16.139 45.439 16.042 45.5411 15.9738C45.6432 15.9056 45.7633 15.8691 45.8861 15.8691C46.0508 15.8691 46.2087 15.9346 46.3252 16.051C46.4416 16.1675 46.507 16.3254 46.507 16.4901Z" fill="#ED2024"/>
<path d="M49.6009 16.4901C49.6009 16.6129 49.5645 16.7329 49.4963 16.835C49.4281 16.9372 49.3311 17.0167 49.2176 17.0637C49.1042 17.1107 48.9793 17.123 48.8589 17.0991C48.7384 17.0751 48.6278 17.016 48.5409 16.9291C48.4541 16.8423 48.395 16.7317 48.371 16.6112C48.347 16.4908 48.3593 16.3659 48.4063 16.2525C48.4533 16.139 48.5329 16.042 48.635 15.9738C48.7371 15.9056 48.8572 15.8691 48.98 15.8691C49.1447 15.8691 49.3026 15.9346 49.4191 16.051C49.5355 16.1675 49.6009 16.3254 49.6009 16.4901Z" fill="#F7EC13"/>
<path d="M52.6948 16.4901C52.6948 16.6129 52.6584 16.7329 52.5902 16.835C52.522 16.9372 52.425 17.0167 52.3115 17.0637C52.1981 17.1107 52.0732 17.123 51.9528 17.0991C51.8323 17.0751 51.7217 17.016 51.6348 16.9291C51.548 16.8423 51.4889 16.7317 51.4649 16.6112C51.4409 16.4908 51.4532 16.3659 51.5002 16.2525C51.5472 16.139 51.6268 16.042 51.7289 15.9738C51.831 15.9056 51.9511 15.8691 52.0739 15.8691C52.2386 15.8691 52.3965 15.9346 52.513 16.051C52.6294 16.1675 52.6948 16.3254 52.6948 16.4901Z" fill="#6ABD45"/>
<path d="M46.6152 27.7297C46.575 27.7297 46.5398 27.7147 46.5097 27.6845C46.4795 27.6544 46.4644 27.6167 46.4644 27.5714V26.7571C46.4644 26.6867 46.482 26.6314 46.5172 26.5912C46.5524 26.551 46.6052 26.5108 46.6756 26.4706L48.3117 25.3848L46.6756 24.3066C46.6102 24.2664 46.5574 24.2262 46.5172 24.186C46.482 24.1408 46.4644 24.083 46.4644 24.0126V23.1983C46.4644 23.153 46.4795 23.1179 46.5097 23.0927C46.5398 23.0626 46.575 23.0475 46.6152 23.0475C46.6504 23.0475 46.6932 23.0626 46.7434 23.0927L49.4653 24.94C49.5407 24.9903 49.596 25.0405 49.6312 25.0908C49.6664 25.1411 49.684 25.2014 49.684 25.2717V25.5055C49.684 25.5759 49.6664 25.6362 49.6312 25.6864C49.596 25.7317 49.5407 25.7794 49.4653 25.8297L46.7434 27.677C46.6982 27.7122 46.6555 27.7297 46.6152 27.7297Z" fill="#00B7C1"/>
<path d="M52.0403 28.5742C51.99 28.5742 51.9448 28.5566 51.9046 28.5214C51.8694 28.4863 51.8518 28.441 51.8518 28.3857V27.677C51.8518 27.6217 51.8694 27.5764 51.9046 27.5413C51.9398 27.501 51.985 27.4809 52.0403 27.4809H56.519C56.5743 27.4809 56.6195 27.501 56.6547 27.5413C56.6899 27.5764 56.7075 27.6217 56.7075 27.677V28.3857C56.7075 28.441 56.6899 28.4863 56.6547 28.5214C56.6195 28.5566 56.5743 28.5742 56.519 28.5742H52.0403Z" fill="#00B7C1"/>
</svg>
