<svg width="77" height="60" viewBox="0 0 77 60" fill="none" xmlns="http://www.w3.org/2000/svg">
<path d="M5.91627 23.7034C5.91627 23.7034 5.48943 44.8141 5.91627 45.4567C6.34312 46.0993 22.9771 56.1232 23.6169 56.0177C24.2567 55.9121 23.7234 34.9069 23.7234 34.9069L18.392 23.7034H5.91627Z" fill="#DA9A28"/>
<path d="M23.7234 13.7886V34.9031L12.6347 32.9864L5.91629 23.7069L13.3801 16.3487L23.7234 13.7886Z" fill="#B67E2B"/>
<path d="M5.91624 23.7034C5.91624 23.7034 0.106147 28.7107 0.0515187 29.5681C-0.00033237 30.3755 15.8328 41.4077 17.0059 41.6207C18.179 41.8336 23.7234 34.9069 23.7234 34.9069C23.7234 34.9069 7.51529 24.5598 5.91624 23.7034Z" fill="#F8B318"/>
<path d="M5.91623 23.7035L23.7234 13.787C23.7234 13.787 17.6457 10.1593 16.4725 10.4806C15.2994 10.8019 0.674645 19.974 0.0431732 20.5073C-0.588298 21.0406 5.91623 23.7035 5.91623 23.7035Z" fill="#F8B318"/>
<path d="M55.7394 59.9991H24.2584C24.0129 59.9991 23.7774 59.9015 23.6037 59.7279C23.4301 59.5542 23.3325 59.3187 23.3325 59.0732V0.925912C23.3325 0.680345 23.4301 0.444835 23.6037 0.271193C23.7774 0.0975504 24.0129 0 24.2584 0H55.7394C55.985 0 56.2205 0.0975504 56.3941 0.271193C56.5678 0.444835 56.6653 0.680345 56.6653 0.925912V59.0732C56.6653 59.3187 56.5678 59.5542 56.3941 59.7279C56.2205 59.9015 55.985 59.9991 55.7394 59.9991Z" fill="#065072"/>
<path d="M56.6653 24.3357H23.3325V25.8329H56.6653V24.3357Z" fill="#063A4F"/>
<g opacity="0.3">
<g opacity="0.3">
<path d="M25.8326 4.33603H48.6684C48.8242 4.33164 48.9792 4.35853 49.1245 4.41512C49.2697 4.4717 49.4021 4.55683 49.5138 4.66547C49.6256 4.77411 49.7144 4.90405 49.775 5.04761C49.8357 5.19118 49.8669 5.34544 49.8669 5.50129C49.8669 5.65714 49.8357 5.81141 49.775 5.95497C49.7144 6.09854 49.6256 6.22848 49.5138 6.33712C49.4021 6.44576 49.2697 6.53088 49.1245 6.58747C48.9792 6.64405 48.8242 6.67095 48.6684 6.66655H25.8326V4.33603Z" fill="#00848A"/>
</g>
</g>
<g opacity="0.5">
<g opacity="0.5">
<path d="M44.1659 5.52678C44.1661 5.76255 44.0963 5.99307 43.9654 6.18917C43.8346 6.38528 43.6485 6.53816 43.4307 6.62847C43.2129 6.71878 42.9732 6.74245 42.742 6.6965C42.5107 6.65055 42.2983 6.53704 42.1316 6.37033C41.9649 6.20362 41.8514 5.9912 41.8054 5.75996C41.7595 5.52872 41.7832 5.28904 41.8735 5.07126C41.9638 4.85347 42.1167 4.66737 42.3128 4.5365C42.5089 4.40563 42.7394 4.33588 42.9752 4.33606C43.2909 4.33631 43.5936 4.46183 43.8169 4.68509C44.0401 4.90834 44.1656 5.21106 44.1659 5.52678Z" fill="#00848A"/>
</g>
</g>
<g opacity="0.5">
<g opacity="0.5">
<path d="M49.8812 5.52678C49.8813 5.76251 49.8116 5.99299 49.6808 6.18908C49.55 6.38516 49.3639 6.53805 49.1462 6.62838C48.9284 6.71872 48.6888 6.74245 48.4576 6.69657C48.2264 6.6507 48.014 6.53728 47.8472 6.37066C47.6805 6.20404 47.5669 5.99171 47.5208 5.76053C47.4748 5.52934 47.4983 5.2897 47.5885 5.0719C47.6786 4.8541 47.8314 4.66793 48.0274 4.53695C48.2234 4.40597 48.4538 4.33606 48.6895 4.33606C49.0054 4.33606 49.3084 4.46148 49.5318 4.68476C49.7553 4.90803 49.8809 5.2109 49.8812 5.52678Z" fill="#00848A"/>
</g>
</g>
<path d="M54.2172 5.50086C54.2174 5.76497 54.1392 6.02321 53.9926 6.24289C53.846 6.46258 53.6375 6.63386 53.3936 6.73506C53.1496 6.83625 52.8812 6.86283 52.6221 6.81141C52.363 6.76 52.1251 6.63291 51.9382 6.44622C51.7514 6.25953 51.6242 6.02163 51.5726 5.76261C51.521 5.50359 51.5474 5.23508 51.6484 4.99106C51.7494 4.74704 51.9205 4.53846 52.1401 4.39171C52.3597 4.24496 52.6179 4.16663 52.882 4.16663C53.236 4.16663 53.5754 4.30717 53.8258 4.55736C54.0762 4.80755 54.2169 5.14692 54.2172 5.50086Z" fill="#00B7C1"/>
<g opacity="0.3">
<g opacity="0.3">
<path d="M25.8326 11.0027H48.6684C48.8242 10.9983 48.9792 11.0252 49.1245 11.0817C49.2697 11.1383 49.4021 11.2235 49.5138 11.3321C49.6256 11.4407 49.7144 11.5707 49.775 11.7142C49.8357 11.8578 49.8669 12.0121 49.8669 12.1679C49.8669 12.3238 49.8357 12.478 49.775 12.6216C49.7144 12.7652 49.6256 12.8951 49.5138 13.0037C49.4021 13.1124 49.2697 13.1975 49.1245 13.2541C48.9792 13.3107 48.8242 13.3376 48.6684 13.3332H25.8326V11.0027Z" fill="#00848A"/>
</g>
</g>
<g opacity="0.5">
<g opacity="0.5">
<path d="M44.1659 12.1934C44.1661 12.4292 44.0963 12.6597 43.9654 12.8558C43.8346 13.0519 43.6485 13.2048 43.4307 13.2951C43.2129 13.3854 42.9732 13.4091 42.742 13.3631C42.5107 13.3172 42.2983 13.2037 42.1316 13.037C41.9649 12.8702 41.8514 12.6578 41.8054 12.4266C41.7595 12.1953 41.7832 11.9557 41.8735 11.7379C41.9638 11.5201 42.1167 11.334 42.3128 11.2031C42.5089 11.0723 42.7394 11.0025 42.9752 11.0027C43.2909 11.0029 43.5936 11.1285 43.8169 11.3517C44.0401 11.575 44.1656 11.8777 44.1659 12.1934Z" fill="#00848A"/>
</g>
</g>
<g opacity="0.5">
<g opacity="0.5">
<path d="M49.8812 12.1934C49.8813 12.4291 49.8116 12.6596 49.6808 12.8557C49.55 13.0518 49.3639 13.2047 49.1462 13.295C48.9284 13.3853 48.6888 13.4091 48.4576 13.3632C48.2264 13.3173 48.014 13.2039 47.8472 13.0373C47.6805 12.8707 47.5669 12.6583 47.5208 12.4272C47.4748 12.196 47.4983 11.9563 47.5885 11.7385C47.6786 11.5207 47.8314 11.3346 48.0274 11.2036C48.2234 11.0726 48.4538 11.0027 48.6895 11.0027C49.0054 11.0027 49.3084 11.1281 49.5318 11.3514C49.7553 11.5747 49.8809 11.8775 49.8812 12.1934Z" fill="#00848A"/>
</g>
</g>
<path d="M54.2172 12.1675C54.2174 12.4316 54.1392 12.6898 53.9926 12.9095C53.846 13.1292 53.6375 13.3005 53.3936 13.4017C53.1496 13.5029 52.8812 13.5295 52.6221 13.478C52.363 13.4266 52.1251 13.2995 51.9382 13.1128C51.7514 12.9262 51.6242 12.6883 51.5726 12.4292C51.521 12.1702 51.5474 11.9017 51.6484 11.6577C51.7494 11.4137 51.9205 11.2051 52.1401 11.0583C52.3597 10.9116 52.6179 10.8333 52.882 10.8333C53.236 10.8333 53.5754 10.9738 53.8258 11.224C54.0762 11.4742 54.2169 11.8135 54.2172 12.1675Z" fill="#00B7C1"/>
<g opacity="0.3">
<g opacity="0.3">
<path d="M25.8326 17.6694H48.6684C48.8242 17.665 48.9792 17.6919 49.1245 17.7485C49.2697 17.8051 49.4021 17.8902 49.5138 17.9988C49.6256 18.1075 49.7144 18.2374 49.775 18.381C49.8357 18.5246 49.8669 18.6788 49.8669 18.8347C49.8669 18.9905 49.8357 19.1448 49.775 19.2883C49.7144 19.4319 49.6256 19.5619 49.5138 19.6705C49.4021 19.7791 49.2697 19.8643 49.1245 19.9208C48.9792 19.9774 48.8242 20.0043 48.6684 19.9999H25.8326V17.6694Z" fill="#00848A"/>
</g>
</g>
<g opacity="0.5">
<g opacity="0.5">
<path d="M44.1659 18.8599C44.1661 19.0957 44.0963 19.3262 43.9654 19.5223C43.8346 19.7184 43.6485 19.8713 43.4307 19.9616C43.2129 20.0519 42.9732 20.0756 42.742 20.0296C42.5107 19.9837 42.2983 19.8702 42.1316 19.7035C41.9649 19.5367 41.8514 19.3243 41.8054 19.0931C41.7595 18.8618 41.7832 18.6222 41.8735 18.4044C41.9638 18.1866 42.1167 18.0005 42.3128 17.8696C42.5089 17.7388 42.7394 17.669 42.9752 17.6692C43.2909 17.6694 43.5936 17.795 43.8169 18.0182C44.0401 18.2415 44.1656 18.5442 44.1659 18.8599Z" fill="#00848A"/>
</g>
</g>
<g opacity="0.5">
<g opacity="0.5">
<path d="M49.8812 18.8599C49.8813 19.0956 49.8116 19.3261 49.6808 19.5222C49.55 19.7183 49.3639 19.8712 49.1462 19.9615C48.9284 20.0518 48.6888 20.0756 48.4576 20.0297C48.2264 19.9838 48.014 19.8704 47.8472 19.7038C47.6805 19.5372 47.5669 19.3248 47.5208 19.0937C47.4748 18.8625 47.4983 18.6228 47.5885 18.405C47.6786 18.1872 47.8314 18.0011 48.0274 17.8701C48.2234 17.7391 48.4538 17.6692 48.6895 17.6692C49.0054 17.6692 49.3084 17.7946 49.5318 18.0179C49.7553 18.2412 49.8809 18.544 49.8812 18.8599Z" fill="#00848A"/>
</g>
</g>
<path d="M54.2172 18.8341C54.2174 19.0982 54.1392 19.3565 53.9926 19.5761C53.846 19.7958 53.6375 19.9671 53.3936 20.0683C53.1496 20.1695 52.8812 20.1961 52.6221 20.1447C52.363 20.0933 52.1251 19.9662 51.9382 19.7795C51.7514 19.5928 51.6242 19.3549 51.5726 19.0959C51.521 18.8368 51.5474 18.5683 51.6484 18.3243C51.7494 18.0803 51.9205 17.8717 52.1401 17.725C52.3597 17.5782 52.6179 17.4999 52.882 17.4999C53.236 17.4999 53.5754 17.6404 53.8258 17.8906C54.0762 18.1408 54.2169 18.4802 54.2172 18.8341Z" fill="#00B7C1"/>
<path d="M41.9982 41.9975C41.9984 42.3929 41.8813 42.7795 41.6618 43.1084C41.4422 43.4372 41.1301 43.6936 40.7648 43.845C40.3996 43.9965 39.9976 44.0362 39.6098 43.9592C39.2219 43.8821 38.8656 43.6918 38.586 43.4123C38.3063 43.1328 38.1158 42.7766 38.0386 42.3888C37.9614 42.001 38.001 41.599 38.1522 41.2336C38.3035 40.8683 38.5597 40.5561 38.8885 40.3364C39.2173 40.1167 39.6038 39.9994 39.9992 39.9994C40.5292 39.9994 41.0375 40.2099 41.4124 40.5846C41.7873 40.9593 41.998 41.4675 41.9982 41.9975Z" fill="#00B7C1"/>
<path d="M41.9982 51.3342C41.9982 51.7296 41.881 52.1161 41.6613 52.4449C41.4417 52.7736 41.1295 53.0298 40.7642 53.1811C40.3989 53.3324 39.997 53.372 39.6092 53.2949C39.2214 53.2177 38.8652 53.0274 38.5857 52.7478C38.3061 52.4682 38.1157 52.112 38.0386 51.7242C37.9614 51.3365 38.001 50.9345 38.1523 50.5692C38.3036 50.204 38.5598 49.8918 38.8886 49.6721C39.2173 49.4524 39.6038 49.3352 39.9992 49.3352C40.5294 49.3352 41.0378 49.5458 41.4127 49.9207C41.7876 50.2956 41.9982 50.8041 41.9982 51.3342Z" fill="#00B7C1"/>
<path fill-rule="evenodd" clip-rule="evenodd" d="M65.7644 59.251L65.7323 59.256H65.7644" fill="#35979C"/>
<path fill-rule="evenodd" clip-rule="evenodd" d="M63.7679 34.2059C66.3187 34.2059 68.8122 34.9624 70.9332 36.3795C73.0541 37.7967 74.7071 39.811 75.6833 42.1677C76.6594 44.5244 76.9147 47.1176 76.417 49.6194C75.9193 52.1212 74.6909 54.4192 72.8871 56.2229C71.0833 58.0265 68.7852 59.2547 66.2834 59.7523C63.7816 60.2498 61.1884 59.9943 58.8318 59.018C56.4751 58.0417 54.461 56.3885 53.0439 54.2675C51.6269 52.1465 50.8707 49.6529 50.8708 47.102C50.8708 45.4084 51.2044 43.7314 51.8526 42.1667C52.5007 40.602 53.4507 39.1803 54.6484 37.9828C55.846 36.7853 57.2677 35.8354 58.8325 35.1873C60.3972 34.5393 62.0743 34.2058 63.7679 34.2059Z" fill="#1D6B76"/>
<path fill-rule="evenodd" clip-rule="evenodd" d="M63.7684 34.206C65.4712 34.1916 67.16 34.5145 68.7374 35.1562C70.3147 35.7978 71.7494 36.7455 72.9586 37.9445C74.1678 39.1435 75.1275 40.57 75.7825 42.1419C76.4375 43.7137 76.7747 45.3997 76.7747 47.1026C76.7747 48.8054 76.4375 50.4914 75.7825 52.0633C75.1275 53.6351 74.1678 55.0617 72.9586 56.2607C71.7494 57.4597 70.3147 58.4074 68.7374 59.049C67.16 59.6907 65.4712 60.0136 63.7684 59.9991V34.206Z" fill="#175961"/>
<path fill-rule="evenodd" clip-rule="evenodd" d="M63.7684 41.2391C67.7378 41.2391 71.3378 41.8651 73.9535 42.878C74.7821 43.1898 75.5731 43.5935 76.3118 44.0817C76.3914 44.415 76.4584 44.7545 76.5127 45.1002C75.8349 44.5196 74.8766 43.9891 73.7016 43.5335C71.1665 42.5502 67.6563 41.9419 63.7721 41.9419C59.8879 41.9419 56.3778 42.5502 53.8427 43.5335C52.6677 43.9891 51.7131 44.5196 51.0316 45.1002C51.0853 44.7576 51.1523 44.4181 51.2325 44.0817C51.9716 43.5937 52.7629 43.19 53.5917 42.878C56.2028 41.8651 59.8028 41.2391 63.7768 41.2391H63.7684ZM76.3164 50.1279C75.5778 50.616 74.7867 51.0198 73.9581 51.3316C71.3461 52.3445 67.7462 52.9714 63.7731 52.9714C59.8 52.9714 56.2037 52.3445 53.588 51.3316C52.7592 51.0196 51.9679 50.6158 51.2288 50.1279C51.1492 49.7946 51.0822 49.4551 51.0279 49.1094C51.7057 49.6899 52.664 50.2205 53.839 50.676C56.3741 51.6593 59.8842 52.2677 63.7684 52.2677C67.6526 52.2677 71.1628 51.6658 73.7025 50.6797C74.8775 50.2242 75.8321 49.6936 76.5136 49.1131C76.4599 49.4557 76.3929 49.7952 76.3127 50.1316" fill="#4EC3CA"/>
<path fill-rule="evenodd" clip-rule="evenodd" d="M57.9042 47.103C57.9042 43.1336 58.5311 39.5327 59.544 36.9179C59.8558 36.0893 60.2596 35.2982 60.7477 34.5596C61.081 34.4788 61.4205 34.4115 61.7662 34.3578C61.1857 35.0365 60.6551 35.9948 60.1996 37.1689C59.2153 39.7049 58.6079 43.2151 58.607 47.0993C58.6061 50.9835 59.2153 54.4927 60.1996 57.0287C60.6551 58.2028 61.1857 59.1583 61.7662 59.8389C61.4236 59.7852 61.0841 59.7182 60.7477 59.6379C60.2596 58.8993 59.8558 58.1083 59.544 57.2796C58.5311 54.6686 57.9042 51.0686 57.9042 47.0993V47.103ZM66.793 34.5596C67.2815 35.298 67.6853 36.0891 67.9967 36.9179C69.0059 39.5364 69.6281 43.1336 69.6281 47.103C69.6281 51.0723 69.0022 54.6723 67.9883 57.2834C67.6769 58.1122 67.2732 58.9032 66.7846 59.6417C66.4513 59.7219 66.1137 59.7889 65.7717 59.8426C66.3522 59.1657 66.8828 58.2065 67.3383 57.0324C68.3217 54.4964 68.93 50.9862 68.93 47.103C68.93 43.2197 68.3318 39.7086 67.3458 37.1726C66.8893 35.9985 66.3597 35.043 65.7791 34.3615C66.1217 34.4152 66.4593 34.4825 66.7921 34.5633" fill="#4EC3CA"/>
<path fill-rule="evenodd" clip-rule="evenodd" d="M63.7681 41.2391C67.7374 41.2391 71.3374 41.8651 73.9531 42.878C74.7817 43.1898 75.5728 43.5935 76.3114 44.0817C76.391 44.415 76.458 44.7545 76.5123 45.1002C75.8345 44.5196 74.8762 43.9891 73.7012 43.5335C71.1661 42.5502 67.656 41.9419 63.7718 41.9419L63.7681 41.2391ZM76.3077 50.1279C75.5693 50.6164 74.7782 51.0202 73.9494 51.3316C71.3374 52.3445 67.7374 52.9704 63.7643 52.9704V52.276C67.6485 52.276 71.1587 51.6677 73.6938 50.6844C74.8688 50.2288 75.8234 49.6983 76.5049 49.1177C76.4512 49.4603 76.3842 49.7979 76.304 50.1307" fill="#35979C"/>
<path fill-rule="evenodd" clip-rule="evenodd" d="M66.792 34.5633C67.2805 35.3017 67.6843 36.0928 67.9957 36.9216C69.0059 39.5364 69.6281 43.1335 69.6281 47.1029C69.6281 51.0723 69.0022 54.6722 67.9883 57.2833C67.6769 58.1121 67.2731 58.9032 66.7846 59.6416C66.4513 59.7219 66.1136 59.7888 65.7717 59.8425C66.3522 59.1657 66.8828 58.2065 67.3383 57.0324C68.3216 54.4963 68.93 50.9862 68.93 47.1029C68.93 43.2196 68.3318 39.7086 67.3457 37.1734C66.8892 35.9985 66.3596 35.0438 65.7791 34.3615C66.1217 34.4152 66.4593 34.4824 66.792 34.5633Z" fill="#35979C"/>
<path fill-rule="evenodd" clip-rule="evenodd" d="M70.84 49.8732H56.7661C56.2979 49.872 55.8491 49.6855 55.5179 49.3545C55.1868 49.0235 55 48.5748 54.9986 48.1066V46.6409C55 46.1725 55.1867 45.7238 55.5179 45.3926C55.8491 45.0615 56.2978 44.8748 56.7661 44.8733H70.84C71.3082 44.8748 71.7569 45.0615 72.0879 45.3927C72.4189 45.7239 72.6054 46.1726 72.6066 46.6409V48.1066C72.6054 48.5747 72.4189 49.0234 72.0878 49.3544C71.7568 49.6855 71.3081 49.872 70.84 49.8732Z" fill="white"/>
</svg>
